<svg id="Layer_1" xmlns="http://www.w3.org/2000/svg" viewBox="0 0 144.4 100"><style>.st0{fill:#242424}</style><g transform="translate(2.733 60.264) scale(1.06624)" id="logotypeSvgTemplate"><g id="line1"><path class="st0" d="M62 2c-.6-.6-1-1.2-1.1-1.9-.2 0-.4-.1-.5-.1-.2 0-.4 0-.5-.2-.1 0-.2.1-.3.2-.1.1-.2.2-.4.2-.1.1-.1 0-.2-.1 0-.1-.1-.2-.3-.2s-.3 0-.6-.1c-.2 0-.5.1-.8.3-.1.1-.3.2-.4.1s-.2-.3-.2-.6c.3-.2.4-.4.4-.6l-.6.3c-.5.3-.9.7-1.3 1.4-.5.6-.9 1.1-1.4 1.4-.3.1-.6.4-.8.9-.3.5-.6.8-.9 1-.3.2-.7.6-1.2 1.1-.7.4-1.3.9-1.9 1.5s-1.2 1.1-1.8 1.6c-.6.5-1 .9-1.2 1.1-.8.7-1.5 1.4-2.3 2.2-.8.8-1.5 1.5-2.3 2-1 .7-1.9 1.4-2.9 2-.9.7-1.9 1.3-2.9 1.8-1 .8-2.1 1.5-3.1 2.1-1 .7-2.1 1.3-3.3 1.9-.7.3-1.3.6-1.9 1-.6.4-1.2.7-1.8 1.1l-4.1 1.8c-.4.1-.7.2-.8.3-.1.1-.2.1-.2.1h-.3c-.1 0-.4 0-.8.1-1 .1-2.2.3-3.5.5s-2.3 0-3-.5c-.6-.3-1-.7-1.2-1-.3-.3-.6-.8-.9-1.4-.4-.8-.7-1.6-.8-2.5-.1-.9-.2-1.8-.4-2.7.1-.6.1-1.1.1-1.5 0-.5 0-1 .2-1.5.1-1 .3-1.9.4-2.7.1-.8.2-1.6.4-2.5.1-.9.3-1.8.6-2.8.3-1 .7-2.2 1.1-3.5.6-1.6 1.2-3.2 1.9-4.7s1.5-3 2.4-4.5c1.3-2.4 2.7-4.7 4.1-6.9 1.4-2.2 2.8-4.4 4.4-6.6 1-1.5 2.1-3 3.1-4.3 1-1.4 2.1-2.6 3.3-3.8 1.3-1.5 2.6-3 3.8-4.4 1.2-1.4 2.6-2.8 4.2-4.1.8-.7 1.3-1.2 1.5-1.6.2-.3.7-.8 1.5-1.5.8-.3 1.4-.7 1.8-1.2.5-.5 1-.9 1.6-1.3.6-.3 1.1-.7 1.7-1.1.6-.4 1.2-.6 1.9-.8 1-.3 1.6-.1 2 .7.3.7.4 1.5.1 2.3-.3.9-.6 1.7-1 2.3-.4.7-.8 1.4-1 2.1-.6 1.2-1 2.1-1.4 2.8s-.9 1.6-1.6 2.7c-.3.6-.7 1.1-1 1.8-.3.6-.6 1.2-.9 1.9-.6.8-1.1 1.5-1.6 2.2-.5.7-.9 1.4-1.2 2.2-.7 1.1-1.3 2.2-1.9 3.2-.6 1-.9 2.1-1 3.4.1.2.1.6.1 1.1 0 .5.1.8.3 1 .3.1.6.4.7.8.1.4.3.7.6 1.1.1.1.3.2.6.3s.6.1.9.2c.3 0 .9 0 1.6.1.7.1 1.3.1 1.8.1l2.4-.8c.4-.1.8-.4 1.1-.9.3-.5.7-.8 1-1.2.3-.4.5-.8.6-1.3.1-.5.3-.9.5-1.4.3-.5.5-1 .6-1.4 0-.5.2-1 .5-1.5l.6-1.2c.2-.4.4-.9.8-1.5.4-1.3 1-2.5 1.7-3.5 0-.1 0-.2.1-.3.3-.6.7-1.3 1.1-1.9.4-.7.7-1.3.9-1.9.2-.3.5-.7.8-1.1s.5-.8.7-1.4c.2-.8.5-1.7 1-2.5.5-.9.8-1.7 1.1-2.5.6-1.1 1-2.3 1.4-3.5.3-1.2.6-2.5.6-3.8-.1-.6-.1-1.1-.2-1.8 0-.6-.1-1.2-.1-1.8 0-.6-.1-.9-.2-1.1-.1-.2-.3-.7-.6-1.4-.2-.6-.5-.9-.9-1.1-.4-.2-.8-.6-1.4-1.2-.3-.3-.8-.6-1.5-.8-.6-.2-1.1-.3-1.6-.5-.6-.3-1.5-.5-2.7-.6-1.1-.1-2-.1-2.7.1-.8.1-1.5.2-2.2.3-.7.1-1.5.3-2.4.6-.9.3-1.8.7-2.7 1.2-.9.5-1.9 1-2.9 1.6-.6.3-1.1.7-1.7 1.1-.6.4-1.1.8-1.7 1.1-.6.3-1.1.7-1.7 1.1-.6.4-1 .8-1.4 1.2l-4.5 4c-.5.6-1 1.1-1.5 1.8-.5.6-1.1 1.2-1.6 1.8-.6.6-1.2 1.1-1.8 1.8-.6.6-1 1.3-1.5 2L19-29.9c-.6.8-1.2 1.6-1.8 2.5-.6.9-1.2 1.8-1.9 2.6-.6.8-1.1 1.5-1.6 2.3-.5.8-1.1 1.6-1.6 2.4l-2.7 4.4c-.4.7-.8 1.3-1.2 1.9-.4.6-.8 1.3-1.1 2-.4 1.3-1.1 2.6-2 3.7-.3.9-.6 1.7-.9 2.5-.4.8-.7 1.7-1.1 2.6C1.9-.9 1.1 1.2.6 3.2c-.4 1.2-.7 2.3-1 3.3s-.6 2.1-1 3.1c0 .3-.1.9-.2 1.6 0 .6-.1 1.1-.2 1.6s-.2 1-.3 1.4c-.1.6-.2 1.2-.2 1.9 0 .6-.1 1.2-.2 1.8-.1 1.1-.2 2.2-.2 3.2s.2 2.1.4 3.2c.1.8.3 1.4.5 2s.5 1.2.7 1.9c.3.6.6 1.1.8 1.6.2.5.6 1 1.1 1.5.3.3.5.7.6.9.8.8 1.5 1.4 2.3 1.9.3.3.7.7 1.2 1 .5.1 1 .3 1.7.4.9.2 1.4.4 1.7.5.8.1 1.5.2 2.3.2s1.5 0 2.3.2c1 .1 2 .1 3 0 .9-.1 1.9-.3 2.9-.4l3.3-.6c.3 0 .6-.1.7-.3.6-.3 1.2-.5 1.8-.7.6-.2 1.1-.4 1.8-.6.3-.1.6-.3.8-.5.3-.2.6-.3.8-.5.6-.5 1.2-.8 1.8-.9.7-.1 1.3-.4 1.8-.7.4-.3.8-.5 1.2-.7.4-.2.8-.4 1.4-.6.3-.3.7-.6 1.1-.8l1.2-.6 1.4-1c.6-.4 1.1-.8 1.8-1.2.6-.4 1.3-.8 2-1.2l1.6-1.4 5.8-4.7.9-.9c.3-.3 1-1 2.1-2.2s2.1-2.5 3.3-3.9 2.3-2.8 3.3-4c1-1.2 1.6-2.1 1.8-2.5.1-.3.3-.6.4-.9.1-.3.3-.6.5-.9.3-.3.5-.6.5-.8 0-.4 0-.7.1-.9zM61.3.7c-.2-.7-.4-1-.5-1-.1 0-.1.2 0 .5l.3.3.2.2z"/><path class="st0" d="M83.4 4.7c-.1.1-.3.2-.4.1-.1-.1-.3 0-.4.1L85-1.7c.3-.9.8-2 1.2-3.4l1.5-4.2c.5-1.5 1-2.9 1.4-4.3.4-1.4.8-2.6 1-3.6l.1.1c.6-1.9 1.1-4 1.6-6.2s.9-4.4 1.2-6.7c.3-1.2.6-2.6.8-4.2.2-1.6.3-3 .3-4.4-.1-1.4-.3-2.8-.4-4.2-.1-1.4-.5-2.6-1.2-3.5-.8-1.2-1.7-2.2-2.9-3.1-1.1-.9-2.3-1.4-3.4-1.6-.8-.2-1.7-.3-2.8-.4-1.1 0-2 .1-2.8.3-1.6.3-3.4 1-5.3 2.1v-.1c-1.4.6-2.7 1.3-4 2.1-1.1 1-2.3 1.9-3.3 2.9l-.9.8H67l-.4.4-1.1.8h.1l-1 .7-4.1 4.1c-.6.6-1.1 1.3-1.5 2v-.1L57.7-34l-3.6 4.6-.6 1.2c-.1.1-.2.3-.3.4-.1.1-.2.3-.3.4L51.4-25c-.5.8-.9 1.5-1.2 2.1h.1c-.6 1.4-1 2.4-1.2 2.9-.2.6-.4 1-.5 1.5 0 .1 0 .2-.1.3 0 .1-.1.2-.1.3 0 .3-.1.6-.3.8l-.1.3c-.3 1.4-.6 2.9-.7 4.4-.1 1.6-.2 3-.2 4.3.1 1 .3 1.8.6 2.4.3.6.7 1.3 1.3 1.9.6.6 1.2 1.1 2 1.5s1.5.8 2.3 1.2v-.1c.5.3 1 .5 1.6.5 1.2.1 2.4.2 3.8.1s2.4-.3 3.2-.6l3-1.5 3.2-2c.3-.2.6-.4 1-.6.4-.2.6-.4.8-.5h-.1c.7-.6 1.3-1.3 1.8-2s.9-1.6 1.2-2.5c.1-.3.2-.7.3-1.1.1-.4.1-.8-.1-1.1l.1-1.7c.1-.3.1-.5-.2-.5-.2-.1-.6-.4-1.2-.9l-1.1-.3c-.2-.1-.5-.3-.7-.6-.3-.2-.6-.3-.9-.3-.1.1-.3.1-.5.2s-.3.1-.5 0c-.5-.1-.9 0-1.2.3-.3.2-.7.6-1.1 1.2l-.8.8c-.3.2-.7.5-1 .8l-1 1c-.3.3-.6.5-.8.7-.3.2-.6.4-.8.5-.8.7-1.7.8-2.5.3l-.8-.4-.4-1.1v-1.1c0-.1 0-.4.1-.7.1-.3.1-.6.1-.7.3-1 .7-2.1 1.1-3.1.4-1 .8-1.9 1.3-2.8.3-1 1-2.2 2-3.6s1.9-2.7 2.9-4v.1l.7-.6c1.2-1.4 2.5-2.8 4.1-4.3 1.5-1.5 2.9-2.7 4.2-3.6.8-.8 1.4-1.3 1.8-1.7.4-.3 1.1-.7 2-1l2-1 1.8-.6c.2-.1.4-.1.6-.2.2 0 .6.1 1.1.3.1.1.3.3.7.6.4.3.6.5.6.6.1.3.2.8.1 1.2-.1.5-.1.9-.1 1.2 0 1-.2 2.4-.5 4.2L83-29.2l-.6 2.6-.8 3.3-3.4 12.9c-.5 1.7-1.1 3.7-1.8 5.8S75-.4 74.2 1.6c-.3.8-.6 1.5-.8 2.2-.2.7-.4 1.5-.6 2.2l-1.4 4.4v-.1l-.3 1h.6c-.1.1-.2.3-.5.4-.2.1-.4.2-.4.3l-.6 1.7c0 .1 0 .1-.1.2s-.1.2-.1.3v-.1c-.2.3-.4.8-.6 1.4-.2.6-.4 1.3-.6 2.3l-.9 2.4-.8 2.8.1-.1-.4.6c-.1.3-.3.7-.4 1-.1.3-.2.8-.4 1.6-.1.3-.2.8-.3 1.4s-.2 1.1-.3 1.7c-.1.6-.1 1.3-.1 2s.1 1.4.2 1.9c.3 1 .9 1.9 1.6 2.4.7.6 1.6 1.1 2.5 1.5 1 .4 2 .4 2.9 0 .9-.4 1.7-1.1 2.5-2.1l1.4-2.2v.2l.2-.5 1.1-1.7c.8-1.1 1.4-2.2 1.9-3.2s1-1.9 1.6-2.7v.1l.9-1.6 1.7-2.7 1.1-2.1 2-3 2.8-4.7 5-7.3 6.6-9.9c.7-1 1.3-1.9 1.9-2.9.6-1 1.2-1.9 1.9-2.8l2.7-3.6 2.5-3.5 2.4-3.6c1.2-1.2 2.3-2.6 3.3-4s2-2.9 3-4.3l1.1-1.7 1.8-2.4 1.9-2.7 1.2-1.6c.6-1 1.3-1.9 2.2-2.9.9-.9 1.7-2 2.5-3.2.1-.2.4-.5.9-.8.5-.3.7-.6.7-.9h.1c.3-.3.7-.8 1-1.3.3-.5.5-1 .6-1.5l-.3-1.7c0-.2 0-.5-.1-.9s-.1-.7-.1-.9l-.5-.4c-.1-.6-.5-.9-1.1-1.1-.6-.2-1.1-.6-1.5-1l-.3-.3c-.1 0-.2 0-.3.1-.1 0-.3.1-.4.1h-.5l-.2.1c-.6 0-1.3.2-1.9.5a5 5 0 0 0-1.6 1.1c-1 .8-1.9 1.7-2.6 2.7l-.7.8-1.4 2-.8 1.5c-.3.3-.6.7-.9 1.1-.2.4-.5.8-.9 1.2l-2.1 2.9-2.6 3.6-.7.8c-1.1 1.6-2.3 3.2-3.5 4.8-1.2 1.6-2.3 3.2-3.4 4.7l-2.8 4.1-.7 1.5c-.2.4-.5.7-.7 1-.3.2-.6.8-.9 1.7v-.1c-.8 1.1-1.6 2.2-2.3 3.3-.7 1.1-1.5 2.3-2.2 3.5-.4.6-.8 1.1-1.2 1.8-.4.6-.8 1.2-1.1 1.7l-4.2 6.6c-.2.4-.5 1-1 1.8S86.6.1 86 .9l-1.5 2.4c-.5.8-.9 1.1-1.1 1.4zM67-43.3l.3-.4c-.5 0-.7 0-.8.1 0 0 .1.1.5.3z"/></g></g></svg>