<?xml version="1.0" encoding="utf-8"?>
<!-- Generator: Adobe Illustrator 22.1.0, SVG Export Plug-In . SVG Version: 6.00 Build 0)  -->
<svg version="1.1" id="Layer_1" xmlns="http://www.w3.org/2000/svg" xmlns:xlink="http://www.w3.org/1999/xlink" x="0px" y="0px"
	 viewBox="0 0 144.4 100" style="enable-background:new 0 0 144.4 100;" xml:space="preserve">
<style type="text/css">
	.st0{fill:#242424;}
</style>
<g id="logotypeSvgTemplate" transform="translate(50 0) scale(0.6924612456748653)">
	<g>
		<g transform="translate(-68.25942499356597 87.02882483370288) scale(1.5397881251539787)">
			<g id="line1">
				<path class="st0" d="M62,2c-0.6-0.6-1-1.2-1.1-1.9C60.7,0.1,60.5,0,60.4,0C60.2,0,60,0,59.9-0.2c-0.1,0-0.2,0.1-0.3,0.2
					c-0.1,0.1-0.2,0.2-0.4,0.2c-0.1,0.1-0.1,0-0.2-0.1c0-0.1-0.1-0.2-0.3-0.2s-0.3,0-0.6-0.1c-0.2,0-0.5,0.1-0.8,0.3
					c-0.1,0.1-0.3,0.2-0.4,0.1s-0.2-0.3-0.2-0.6C57-0.6,57.1-0.8,57.1-1l-0.6,0.3C56-0.4,55.6,0,55.2,0.7c-0.5,0.6-0.9,1.1-1.4,1.4
					c-0.3,0.1-0.6,0.4-0.8,0.9c-0.3,0.5-0.6,0.8-0.9,1c-0.3,0.2-0.7,0.6-1.2,1.1C50.2,5.5,49.6,6,49,6.6s-1.2,1.1-1.8,1.6
					c-0.6,0.5-1,0.9-1.2,1.1c-0.8,0.7-1.5,1.4-2.3,2.2c-0.8,0.8-1.5,1.5-2.3,2c-1,0.7-1.9,1.4-2.9,2c-0.9,0.7-1.9,1.3-2.9,1.8
					c-1,0.8-2.1,1.5-3.1,2.1c-1,0.7-2.1,1.3-3.3,1.9c-0.7,0.3-1.3,0.6-1.9,1c-0.6,0.4-1.2,0.7-1.8,1.1l-4.1,1.8
					c-0.4,0.1-0.7,0.2-0.8,0.3c-0.1,0.1-0.2,0.1-0.2,0.1h-0.3c-0.1,0-0.4,0-0.8,0.1c-1,0.1-2.2,0.3-3.5,0.5s-2.3,0-3-0.5
					c-0.6-0.3-1-0.7-1.2-1c-0.3-0.3-0.6-0.8-0.9-1.4c-0.4-0.8-0.7-1.6-0.8-2.5c-0.1-0.9-0.2-1.8-0.4-2.7c0.1-0.6,0.1-1.1,0.1-1.5
					c0-0.5,0-1,0.2-1.5c0.1-1,0.3-1.9,0.4-2.7c0.1-0.8,0.2-1.6,0.4-2.5c0.1-0.9,0.3-1.8,0.6-2.8c0.3-1,0.7-2.2,1.1-3.5
					c0.6-1.6,1.2-3.2,1.9-4.7s1.5-3,2.4-4.5c1.3-2.4,2.7-4.7,4.1-6.9c1.4-2.2,2.8-4.4,4.4-6.6c1-1.5,2.1-3,3.1-4.3
					c1-1.4,2.1-2.6,3.3-3.8c1.3-1.5,2.6-3,3.8-4.4c1.2-1.4,2.6-2.8,4.2-4.1c0.8-0.7,1.3-1.2,1.5-1.6c0.2-0.3,0.7-0.8,1.5-1.5
					c0.8-0.3,1.4-0.7,1.8-1.2c0.5-0.5,1-0.9,1.6-1.3c0.6-0.3,1.1-0.7,1.7-1.1c0.6-0.4,1.2-0.6,1.9-0.8c1-0.3,1.6-0.1,2,0.7
					c0.3,0.7,0.4,1.5,0.1,2.3c-0.3,0.9-0.6,1.7-1,2.3c-0.4,0.7-0.8,1.4-1,2.1c-0.6,1.2-1,2.1-1.4,2.8s-0.9,1.6-1.6,2.7
					c-0.3,0.6-0.7,1.1-1,1.8c-0.3,0.6-0.6,1.2-0.9,1.9c-0.6,0.8-1.1,1.5-1.6,2.2c-0.5,0.7-0.9,1.4-1.2,2.2c-0.7,1.1-1.3,2.2-1.9,3.2
					c-0.6,1-0.9,2.1-1,3.4c0.1,0.2,0.1,0.6,0.1,1.1c0,0.5,0.1,0.8,0.3,1c0.3,0.1,0.6,0.4,0.7,0.8c0.1,0.4,0.3,0.7,0.6,1.1
					c0.1,0.1,0.3,0.2,0.6,0.3s0.6,0.1,0.9,0.2c0.3,0,0.9,0,1.6,0.1c0.7,0.1,1.3,0.1,1.8,0.1l2.4-0.8c0.4-0.1,0.8-0.4,1.1-0.9
					c0.3-0.5,0.7-0.8,1-1.2c0.3-0.4,0.5-0.8,0.6-1.3c0.1-0.5,0.3-0.9,0.5-1.4c0.3-0.5,0.5-1,0.6-1.4c0-0.5,0.2-1,0.5-1.5
					c0.2-0.4,0.4-0.8,0.6-1.2c0.2-0.4,0.4-0.9,0.8-1.5c0.4-1.3,1-2.5,1.7-3.5c0-0.1,0-0.2,0.1-0.3c0.3-0.6,0.7-1.3,1.1-1.9
					c0.4-0.7,0.7-1.3,0.9-1.9c0.2-0.3,0.5-0.7,0.8-1.1s0.5-0.8,0.7-1.4c0.2-0.8,0.5-1.7,1-2.5c0.5-0.9,0.8-1.7,1.1-2.5
					c0.6-1.1,1-2.3,1.4-3.5c0.3-1.2,0.6-2.5,0.6-3.8c-0.1-0.6-0.1-1.1-0.2-1.8c0-0.6-0.1-1.2-0.1-1.8c0-0.6-0.1-0.9-0.2-1.1
					c-0.1-0.2-0.3-0.7-0.6-1.4c-0.2-0.6-0.5-0.9-0.9-1.1c-0.4-0.2-0.8-0.6-1.4-1.2c-0.3-0.3-0.8-0.6-1.5-0.8
					c-0.6-0.2-1.1-0.3-1.6-0.5c-0.6-0.3-1.5-0.5-2.7-0.6c-1.1-0.1-2-0.1-2.7,0.1c-0.8,0.1-1.5,0.2-2.2,0.3c-0.7,0.1-1.5,0.3-2.4,0.6
					c-0.9,0.3-1.8,0.7-2.7,1.2C43-52.1,42-51.6,41-51c-0.6,0.3-1.1,0.7-1.7,1.1c-0.6,0.4-1.1,0.8-1.7,1.1c-0.6,0.3-1.1,0.7-1.7,1.1
					c-0.6,0.4-1,0.8-1.4,1.2l-4.5,4c-0.5,0.6-1,1.1-1.5,1.8c-0.5,0.6-1.1,1.2-1.6,1.8c-0.6,0.6-1.2,1.1-1.8,1.8
					c-0.6,0.6-1,1.3-1.5,2L19-29.9c-0.6,0.8-1.2,1.6-1.8,2.5c-0.6,0.9-1.2,1.8-1.9,2.6c-0.6,0.8-1.1,1.5-1.6,2.3
					c-0.5,0.8-1.1,1.6-1.6,2.4l-2.7,4.4C9-15,8.6-14.4,8.2-13.8c-0.4,0.6-0.8,1.3-1.1,2c-0.4,1.3-1.1,2.6-2,3.7
					C4.8-7.2,4.5-6.4,4.2-5.6C3.8-4.8,3.5-3.9,3.1-3c-1.2,2.1-2,4.2-2.5,6.2c-0.4,1.2-0.7,2.3-1,3.3s-0.6,2.1-1,3.1
					c0,0.3-0.1,0.9-0.2,1.6c0,0.6-0.1,1.1-0.2,1.6c-0.1,0.5-0.2,1-0.3,1.4c-0.1,0.6-0.2,1.2-0.2,1.9c0,0.6-0.1,1.2-0.2,1.8
					c-0.1,1.1-0.2,2.2-0.2,3.2s0.2,2.1,0.4,3.2c0.1,0.8,0.3,1.4,0.5,2s0.5,1.2,0.7,1.9c0.3,0.6,0.6,1.1,0.8,1.6
					c0.2,0.5,0.6,1,1.1,1.5c0.3,0.3,0.5,0.7,0.6,0.9c0.8,0.8,1.5,1.4,2.3,1.9c0.3,0.3,0.7,0.7,1.2,1c0.5,0.1,1,0.3,1.7,0.4
					C7.5,35.7,8,35.9,8.3,36c0.8,0.1,1.5,0.2,2.3,0.2s1.5,0,2.3,0.2c1,0.1,2,0.1,3,0c0.9-0.1,1.9-0.3,2.9-0.4l3.3-0.6
					c0.3,0,0.6-0.1,0.7-0.3c0.6-0.3,1.2-0.5,1.8-0.7c0.6-0.2,1.1-0.4,1.8-0.6c0.3-0.1,0.6-0.3,0.8-0.5c0.3-0.2,0.6-0.3,0.8-0.5
					c0.6-0.5,1.2-0.8,1.8-0.9c0.7-0.1,1.3-0.4,1.8-0.7c0.4-0.3,0.8-0.5,1.2-0.7c0.4-0.2,0.8-0.4,1.4-0.6c0.3-0.3,0.7-0.6,1.1-0.8
					s0.8-0.4,1.2-0.6l1.4-1c0.6-0.4,1.1-0.8,1.8-1.2c0.6-0.4,1.3-0.8,2-1.2l1.6-1.4l5.8-4.7l0.9-0.9c0.3-0.3,1-1,2.1-2.2
					s2.1-2.5,3.3-3.9s2.3-2.8,3.3-4c1-1.2,1.6-2.1,1.8-2.5c0.1-0.3,0.3-0.6,0.4-0.9c0.1-0.3,0.3-0.6,0.5-0.9
					c0.3-0.3,0.5-0.6,0.5-0.8C61.9,2.5,61.9,2.2,62,2z M61.3,0.7c-0.2-0.7-0.4-1-0.5-1c-0.1,0-0.1,0.2,0,0.5l0.3,0.3L61.3,0.7z"/>
				<path class="st0" d="M83.4,4.7c-0.1,0.1-0.3,0.2-0.4,0.1c-0.1-0.1-0.3,0-0.4,0.1l2.4-6.6c0.3-0.9,0.8-2,1.2-3.4
					c0.5-1.4,1-2.8,1.5-4.2c0.5-1.5,1-2.9,1.4-4.3c0.4-1.4,0.8-2.6,1-3.6l0.1,0.1c0.6-1.9,1.1-4,1.6-6.2c0.5-2.2,0.9-4.4,1.2-6.7
					c0.3-1.2,0.6-2.6,0.8-4.2c0.2-1.6,0.3-3,0.3-4.4c-0.1-1.4-0.3-2.8-0.4-4.2c-0.1-1.4-0.5-2.6-1.2-3.5c-0.8-1.2-1.7-2.2-2.9-3.1
					c-1.1-0.9-2.3-1.4-3.4-1.6c-0.8-0.2-1.7-0.3-2.8-0.4c-1.1,0-2,0.1-2.8,0.3c-1.6,0.3-3.4,1-5.3,2.1v-0.1c-1.4,0.6-2.7,1.3-4,2.1
					C70.2-46,69-45.1,68-44.1l-0.9,0.8H67l-0.4,0.4l-1.1,0.8h0.1l-1,0.7l-4.1,4.1c-0.6,0.6-1.1,1.3-1.5,2v-0.1L57.7-34l-3.6,4.6
					l-0.6,1.2c-0.1,0.1-0.2,0.3-0.3,0.4c-0.1,0.1-0.2,0.3-0.3,0.4c-0.5,0.8-1,1.6-1.5,2.4c-0.5,0.8-0.9,1.5-1.2,2.1h0.1
					c-0.6,1.4-1,2.4-1.2,2.9c-0.2,0.6-0.4,1-0.5,1.5c0,0.1,0,0.2-0.1,0.3c0,0.1-0.1,0.2-0.1,0.3c0,0.3-0.1,0.6-0.3,0.8L48-16.8
					c-0.3,1.4-0.6,2.9-0.7,4.4c-0.1,1.6-0.2,3-0.2,4.3c0.1,1,0.3,1.8,0.6,2.4C48-5.1,48.4-4.4,49-3.8c0.6,0.6,1.2,1.1,2,1.5
					s1.5,0.8,2.3,1.2v-0.1c0.5,0.3,1,0.5,1.6,0.5c1.2,0.1,2.4,0.2,3.8,0.1c1.4-0.1,2.4-0.3,3.2-0.6l3-1.5l3.2-2
					c0.3-0.2,0.6-0.4,1-0.6c0.4-0.2,0.6-0.4,0.8-0.5h-0.1c0.7-0.6,1.3-1.3,1.8-2c0.5-0.7,0.9-1.6,1.2-2.5c0.1-0.3,0.2-0.7,0.3-1.1
					c0.1-0.4,0.1-0.8-0.1-1.1l0.1-1.7c0.1-0.3,0.1-0.5-0.2-0.5c-0.2-0.1-0.6-0.4-1.2-0.9l-1.1-0.3c-0.2-0.1-0.5-0.3-0.7-0.6
					c-0.3-0.2-0.6-0.3-0.9-0.3c-0.1,0.1-0.3,0.1-0.5,0.2s-0.3,0.1-0.5,0c-0.5-0.1-0.9,0-1.2,0.3c-0.3,0.2-0.7,0.6-1.1,1.2l-0.8,0.8
					c-0.3,0.2-0.7,0.5-1,0.8l-1,1c-0.3,0.3-0.6,0.5-0.8,0.7c-0.3,0.2-0.6,0.4-0.8,0.5c-0.8,0.7-1.7,0.8-2.5,0.3l-0.8-0.4l-0.4-1.1
					v-1.1c0-0.1,0-0.4,0.1-0.7c0.1-0.3,0.1-0.6,0.1-0.7c0.3-1,0.7-2.1,1.1-3.1c0.4-1,0.8-1.9,1.3-2.8c0.3-1,1-2.2,2-3.6
					c1-1.4,1.9-2.7,2.9-4v0.1l0.7-0.6c1.2-1.4,2.5-2.8,4.1-4.3c1.5-1.5,2.9-2.7,4.2-3.6c0.8-0.8,1.4-1.3,1.8-1.7
					c0.4-0.3,1.1-0.7,2-1l2-1l1.8-0.6c0.2-0.1,0.4-0.1,0.6-0.2c0.2,0,0.6,0.1,1.1,0.3c0.1,0.1,0.3,0.3,0.7,0.6
					c0.4,0.3,0.6,0.5,0.6,0.6c0.1,0.3,0.2,0.8,0.1,1.2c-0.1,0.5-0.1,0.9-0.1,1.2c0,1-0.2,2.4-0.5,4.2L83-29.2l-0.6,2.6l-0.8,3.3
					l-3.4,12.9c-0.5,1.7-1.1,3.7-1.8,5.8s-1.4,4.2-2.2,6.2c-0.3,0.8-0.6,1.5-0.8,2.2c-0.2,0.7-0.4,1.5-0.6,2.2l-1.4,4.4v-0.1l-0.3,1
					h0.6c-0.1,0.1-0.2,0.3-0.5,0.4c-0.2,0.1-0.4,0.2-0.4,0.3l-0.6,1.7c0,0.1,0,0.1-0.1,0.2s-0.1,0.2-0.1,0.3v-0.1
					c-0.2,0.3-0.4,0.8-0.6,1.4c-0.2,0.6-0.4,1.3-0.6,2.3l-0.9,2.4l-0.8,2.8l0.1-0.1l-0.4,0.6c-0.1,0.3-0.3,0.7-0.4,1
					c-0.1,0.3-0.2,0.8-0.4,1.6c-0.1,0.3-0.2,0.8-0.3,1.4s-0.2,1.1-0.3,1.7c-0.1,0.6-0.1,1.3-0.1,2s0.1,1.4,0.2,1.9
					c0.3,1,0.9,1.9,1.6,2.4c0.7,0.6,1.6,1.1,2.5,1.5c1,0.4,2,0.4,2.9,0c0.9-0.4,1.7-1.1,2.5-2.1l1.4-2.2v0.2l0.2-0.5l1.1-1.7
					c0.8-1.1,1.4-2.2,1.9-3.2s1-1.9,1.6-2.7v0.1l0.9-1.6l1.7-2.7l1.1-2.1l2-3l2.8-4.7l5-7.3l6.6-9.9c0.7-1,1.3-1.9,1.9-2.9
					c0.6-1,1.2-1.9,1.9-2.8l2.7-3.6l2.5-3.5l2.4-3.6c1.2-1.2,2.3-2.6,3.3-4s2-2.9,3-4.3l1.1-1.7l1.8-2.4l1.9-2.7l1.2-1.6
					c0.6-1,1.3-1.9,2.2-2.9c0.9-0.9,1.7-2,2.5-3.2c0.1-0.2,0.4-0.5,0.9-0.8c0.5-0.3,0.7-0.6,0.7-0.9h0.1c0.3-0.3,0.7-0.8,1-1.3
					c0.3-0.5,0.5-1,0.6-1.5l-0.3-1.7c0-0.2,0-0.5-0.1-0.9c-0.1-0.4-0.1-0.7-0.1-0.9L132-54c-0.1-0.6-0.5-0.9-1.1-1.1
					c-0.6-0.2-1.1-0.6-1.5-1l-0.3-0.3c-0.1,0-0.2,0-0.3,0.1c-0.1,0-0.3,0.1-0.4,0.1h-0.5l-0.2,0.1c-0.6,0-1.3,0.2-1.9,0.5
					c-0.7,0.3-1.2,0.7-1.6,1.1c-1,0.8-1.9,1.7-2.6,2.7l-0.7,0.8l-1.4,2l-0.8,1.5c-0.3,0.3-0.6,0.7-0.9,1.1c-0.2,0.4-0.5,0.8-0.9,1.2
					l-2.1,2.9l-2.6,3.6l-0.7,0.8c-1.1,1.6-2.3,3.2-3.5,4.8c-1.2,1.6-2.3,3.2-3.4,4.7l-2.8,4.1l-0.7,1.5c-0.2,0.4-0.5,0.7-0.7,1
					c-0.3,0.2-0.6,0.8-0.9,1.7v-0.1c-0.8,1.1-1.6,2.2-2.3,3.3c-0.7,1.1-1.5,2.3-2.2,3.5c-0.4,0.6-0.8,1.1-1.2,1.8
					c-0.4,0.6-0.8,1.2-1.1,1.7l-4.2,6.6c-0.2,0.4-0.5,1-1,1.8s-0.9,1.6-1.5,2.4c-0.5,0.8-1,1.6-1.5,2.4S83.6,4.4,83.4,4.7z M67-43.3
					l0.3-0.4c-0.5,0-0.7,0-0.8,0.1C66.5-43.6,66.6-43.5,67-43.3z"/>
			</g>
		</g>
	</g>
</g>
</svg>
